<svg xmlns="http://www.w3.org/2000/svg" width="150" height="50" viewBox="0 0 48 24">
  <g id="Layer_2" data-name="Layer 2">
    <g id="Layer_1-2" data-name="Layer 1">
      <g>
        <path d="M6.55.17H9.22A1.05,1.05,0,0,0,8.91,1l.66,7.57a.88.88,0,0,0,.15.53s.14.15.33.33H6.67A1.16,1.16,0,0,0,7,8.56L6.49,2.62,4.72,9.42h-1L1.79,2,1.16,8.09a1.22,1.22,0,0,0,.18.74l.42.59H0a2.13,2.13,0,0,0,.4-.59A3.29,3.29,0,0,0,.6,8l.68-7c0-.11-.05-.25-.07-.44A.83.83,0,0,0,.89.17H3.81L5.2,5.37Z"/>
        <path d="M13.48,8.58a.85.85,0,0,0,.19.56l.26.28H10.5a1.46,1.46,0,0,0,.33-.4,1,1,0,0,0,.1-.46V1a1.11,1.11,0,0,0-.41-.82h7.39l.41,2.45A4.84,4.84,0,0,0,16.09,1,10.14,10.14,0,0,0,13.43.8l0,3.29a1.49,1.49,0,0,1,.61-.44,2.17,2.17,0,0,1,.8-.13l1.06.09a5.92,5.92,0,0,0,.61,0,2.71,2.71,0,0,0,.79-.1,1.28,1.28,0,0,0,.59-.38,1.26,1.26,0,0,1,0,.21,1.23,1.23,0,0,1-.45.9,1.8,1.8,0,0,1-.91.48l-.26,0c-.12,0-.44,0-1-.11a3.26,3.26,0,0,0-.56,0,2,2,0,0,0-.72.12,1.53,1.53,0,0,0-.6.45Z"/>
        <path d="M21.77,9.42H18.91a.82.82,0,0,0,.22-.3.8.8,0,0,0,.06-.3V3a.66.66,0,0,0-.28-.59h2.58V8.8A.9.9,0,0,0,21.77,9.42ZM21,.3a1,1,0,0,1,.3.74.82.82,0,0,1-.32.69,1.31,1.31,0,0,1-.8.24,1,1,0,0,1-.71-.24A.9.9,0,0,1,19.16,1,1,1,0,0,1,19.47.3,1,1,0,0,1,20.2,0,1.06,1.06,0,0,1,21,.3Z"/>
        <path d="M25.31,8.8a.74.74,0,0,0,.08.29,1.21,1.21,0,0,0,.2.33H22.73A1,1,0,0,0,23,9.1.76.76,0,0,0,23,8.82V.8a.77.77,0,0,0-.31-.63h2.58V5a1.3,1.3,0,0,0,1.19-.85,3.71,3.71,0,0,0,.35-1.67H29.4c0,.06,0,.14,0,.25a2.27,2.27,0,0,1-.74,1.56A2.35,2.35,0,0,1,27.45,5l1.85,3.6a2.23,2.23,0,0,0,.32.48,3,3,0,0,0,.31.33H26.85a1.19,1.19,0,0,0,0-.75L25.31,5.72Z"/>
        <path d="M35.7,2.7a2.1,2.1,0,0,1,.48,1.43,4.71,4.71,0,0,1,0,.48,3.43,3.43,0,0,1-.1.47l-2.2.37c0-.23.11-.46.17-.7a3.39,3.39,0,0,0,.08-.68,1.75,1.75,0,0,0-.05-.4.84.84,0,0,0-.14-.33.58.58,0,0,0-.19-.17.37.37,0,0,0-.2,0,.54.54,0,0,0-.38.16.43.43,0,0,0-.17.33V8.82a.77.77,0,0,0,.33.6H30.42a.66.66,0,0,0,.21-.29.85.85,0,0,0,.07-.33V3.08a.74.74,0,0,0-.12-.44l-.16-.2H33v.43a3.22,3.22,0,0,1,.54-.49,1.52,1.52,0,0,1,.86-.24A1.68,1.68,0,0,1,35.7,2.7Z"/>
        <path d="M39.72,9.42H36.86a.82.82,0,0,0,.22-.3.8.8,0,0,0,.06-.3V3a.66.66,0,0,0-.28-.59h2.58V8.8A.9.9,0,0,0,39.72,9.42ZM38.91.3a1,1,0,0,1,.3.74.85.85,0,0,1-.32.69,1.33,1.33,0,0,1-.8.24,1,1,0,0,1-.71-.24A.9.9,0,0,1,37.11,1,1,1,0,0,1,37.42.3a1,1,0,0,1,.73-.3A1.06,1.06,0,0,1,38.91.3Z"/>
        <path d="M42.47,7.7a1,1,0,0,1,.3.73,1,1,0,0,1-.3.76,1.05,1.05,0,0,1-.75.3A1.07,1.07,0,0,1,41,9.18a1,1,0,0,1-.3-.75A1,1,0,0,1,41,7.7a1.1,1.1,0,0,1,1.51,0Z"/>
      </g>
    </g>
  </g>
</svg>
