<svg xmlns="http://www.w3.org/2000/svg" width="150" height="50" viewBox="0 0 48 24">
  <defs>
    <style>
      .cls-1 {
        fill: none;
        stroke: #fff;
        stroke-miterlimit: 10;
        stroke-width: 0.25px;
      }
    </style>
  </defs>
  <g id="Layer_2" data-name="Layer 2">
    <g id="Layer_1-2" data-name="Layer 1">
      <g>
        <path class="cls-1" d="M6.83.3H9.5a1.06,1.06,0,0,0-.31.81l.67,7.58a.89.89,0,0,0,.14.53l.34.33H7a1.15,1.15,0,0,0,.36-.86L6.78,2.75,5,9.55H4L2.07,2.13,1.44,8.22A1.2,1.2,0,0,0,1.63,9l.41.6H.28A2.09,2.09,0,0,0,.68,9a3.23,3.23,0,0,0,.21-.88l.67-7c0-.11-.05-.25-.07-.43A.79.79,0,0,0,1.17.3H4.09l1.4,5.19Z"/>
        <path class="cls-1" d="M13.76,8.71a.87.87,0,0,0,.2.56l.26.28H10.78a1.42,1.42,0,0,0,.33-.4,1,1,0,0,0,.1-.46V1.11A1.09,1.09,0,0,0,10.8.3h7.4l.4,2.45a4.89,4.89,0,0,0-2.23-1.59A10.25,10.25,0,0,0,13.71.93l0,3.29a1.37,1.37,0,0,1,.61-.45,2.34,2.34,0,0,1,.79-.12l1.06.08a5.85,5.85,0,0,0,.62,0,2.67,2.67,0,0,0,.78-.11,1.35,1.35,0,0,0,.6-.37c0,.1,0,.17,0,.21a1.19,1.19,0,0,1-.45.89,1.76,1.76,0,0,1-.9.49l-.26,0a7.83,7.83,0,0,1-1-.11,4.72,4.72,0,0,0-.57,0,1.88,1.88,0,0,0-.72.13,1.6,1.6,0,0,0-.6.44Z"/>
        <path class="cls-1" d="M22.05,9.55H19.19a1.18,1.18,0,0,0,.23-.31A.79.79,0,0,0,19.48,9V3.16a.68.68,0,0,0-.29-.6h2.58V8.92A.94.94,0,0,0,22.05,9.55ZM21.24.42a1,1,0,0,1,.31.74.8.8,0,0,1-.33.69,1.31,1.31,0,0,1-.79.25,1,1,0,0,1-.72-.25.87.87,0,0,1-.27-.69,1,1,0,0,1,.31-.74,1,1,0,0,1,.74-.3A1.05,1.05,0,0,1,21.24.42Z"/>
        <path class="cls-1" d="M25.59,8.92a.7.7,0,0,0,.08.29,1.27,1.27,0,0,0,.2.34H23a1.15,1.15,0,0,0,.24-.33A.67.67,0,0,0,23.32,9v-8A.72.72,0,0,0,23,.3h2.58V5.09a1.29,1.29,0,0,0,1.19-.85,3.79,3.79,0,0,0,.35-1.68h2.55a1.7,1.7,0,0,1,0,.25A2.29,2.29,0,0,1,29,4.38a2.37,2.37,0,0,1-1.22.76l1.85,3.59a2.59,2.59,0,0,0,.32.49,3,3,0,0,0,.31.33H27.13a1.43,1.43,0,0,0,.06-.34,1.31,1.31,0,0,0-.06-.41l-1.54-3Z"/>
        <path class="cls-1" d="M36,2.82a2.12,2.12,0,0,1,.49,1.43c0,.13,0,.29,0,.48a3.13,3.13,0,0,1-.1.47l-2.19.37c0-.22.1-.45.16-.7a2.79,2.79,0,0,0,.08-.68,1.41,1.41,0,0,0-.05-.4.91.91,0,0,0-.14-.33A.5.5,0,0,0,34,3.29a.46.46,0,0,0-.2,0,.59.59,0,0,0-.38.16.48.48,0,0,0-.17.34V9a.77.77,0,0,0,.33.6H30.7a.73.73,0,0,0,.22-.3A1,1,0,0,0,31,8.92V3.21a.79.79,0,0,0-.12-.45l-.16-.2h2.55V3a3,3,0,0,1,.55-.5,1.56,1.56,0,0,1,.85-.23A1.66,1.66,0,0,1,36,2.82Z"/>
        <path class="cls-1" d="M40,9.55H37.14a1.18,1.18,0,0,0,.23-.31A.79.79,0,0,0,37.43,9V3.16a.68.68,0,0,0-.29-.6h2.58V8.92A.94.94,0,0,0,40,9.55ZM39.19.42a1,1,0,0,1,.31.74.8.8,0,0,1-.33.69,1.31,1.31,0,0,1-.79.25,1,1,0,0,1-.72-.25.87.87,0,0,1-.27-.69A1,1,0,0,1,37.7.42a1,1,0,0,1,.74-.3A1.05,1.05,0,0,1,39.19.42Z"/>
        <path class="cls-1" d="M42.75,7.82a1,1,0,0,1,.31.74,1,1,0,0,1-.31.76,1.08,1.08,0,0,1-.75.29,1,1,0,0,1-1.06-1,1,1,0,0,1,.31-.74A1.05,1.05,0,0,1,42,7.53,1.08,1.08,0,0,1,42.75,7.82Z"/>
      </g>
    </g>
  </g>
</svg>
